<svg width="40" height="40" viewBox="0 0 40 40" fill="none" xmlns="http://www.w3.org/2000/svg">
<path d="M14.4621 21.0913L9.80904 19.5753C9.80904 19.5753 9.25295 19.3496 9.43201 18.838C9.46887 18.7325 9.54323 18.6428 9.76566 18.4885C10.7967 17.7699 28.8485 11.2816 28.8485 11.2816C28.8485 11.2816 29.3582 11.1098 29.6588 11.2241C29.7331 11.2471 29.8 11.2894 29.8527 11.3468C29.9053 11.4042 29.9417 11.4745 29.9583 11.5506C29.9907 11.6849 30.0043 11.8232 29.9986 11.9613C29.9972 12.0807 29.9827 12.1915 29.9718 12.3651C29.8618 14.1391 26.5717 27.3785 26.5717 27.3785C26.5717 27.3785 26.3748 28.1532 25.6695 28.1797C25.4962 28.1853 25.3235 28.156 25.1618 28.0934C25.0001 28.0308 24.8526 27.9363 24.7281 27.8156C23.3441 26.6251 18.5605 23.4102 17.5034 22.7032C17.4796 22.6869 17.4595 22.6658 17.4445 22.6411C17.4296 22.6164 17.4201 22.5888 17.4167 22.5602C17.4019 22.4857 17.4829 22.3934 17.4829 22.3934C17.4829 22.3934 25.8125 14.9894 26.0342 14.2122C26.0513 14.1519 25.9865 14.1222 25.8994 14.1486C25.3462 14.3521 15.7557 20.4086 14.6972 21.077C14.621 21.1001 14.5405 21.105 14.4621 21.0913Z" fill="white"/>
</svg>
